<svg width="132" height="24" viewBox="0 0 132 24" fill="none" xmlns="http://www.w3.org/2000/svg">
<g id="appwrite_dark" clip-path="url(#clip0_4_2)">
<path id="Vector" d="M38.557 19.495C40.717 19.495 41.807 18.382 42.282 17.624H42.496C42.59 18.429 43.16 19.187 44.275 19.187H46.386V16.818H45.841C45.461 16.818 45.271 16.605 45.271 16.274V6.77603H42.471V8.29203H42.258C41.713 7.53403 40.574 6.46803 38.486 6.46803C35.165 6.46803 32.697 9.21503 32.697 12.981C32.697 16.747 35.212 19.495 38.557 19.495ZM39.055 16.795C37.086 16.795 35.545 15.35 35.545 13.005C35.545 10.707 37.039 9.14503 39.032 9.14503C40.93 9.14503 42.519 10.542 42.519 13.005C42.519 15.113 41.166 16.795 39.055 16.795ZM48.04 24H50.839V17.624H51.052C51.574 18.382 52.689 19.495 54.896 19.495C58.217 19.495 60.637 16.7 60.637 12.981C60.637 9.23903 58.051 6.46803 54.706 6.46803C52.571 6.46803 51.526 7.62803 51.028 8.26803H50.815V6.77603H48.039L48.04 24ZM54.303 16.866C52.381 16.866 50.791 15.445 50.791 12.981C50.791 10.873 52.144 9.09703 54.255 9.09703C56.225 9.09703 57.766 10.637 57.766 12.981C57.766 15.279 56.272 16.866 54.303 16.866ZM62.082 24H64.882V17.624H65.095C65.617 18.382 66.732 19.495 68.938 19.495C72.259 19.495 74.448 16.7 74.448 12.981C74.448 9.23903 72.093 6.46803 68.748 6.46803C66.613 6.46803 65.569 7.62803 65.071 8.26803H64.857V6.77603H62.082V24ZM68.345 16.866C66.423 16.866 64.834 15.445 64.834 12.981C64.834 10.873 66.186 9.09703 68.297 9.09703C70.267 9.09703 71.809 10.637 71.809 12.981C71.809 15.279 70.314 16.866 68.345 16.866ZM78.15 19.475H82.111L84.365 9.74003H84.508L86.761 19.475H90.7L93.853 7.06403H91.032L88.778 16.823H88.564L86.311 7.06303H82.586L80.308 16.823H80.095L77.865 7.06303H74.875L78.15 19.475ZM95.272 19.475H98.072V13.341C98.072 10.996 99.162 9.55103 101.203 9.55103H102.436V6.75603H101.511C99.921 6.75603 98.711 7.84603 98.237 8.88803H98.047V7.06403H95.272V19.475ZM116.329 19.475H118.512V16.988H116.353C115.499 16.988 115.143 16.609 115.143 15.733V9.52703H118.654V7.06403H115.143V3.58203H112.486V7.06403H110.161V9.52703H112.32V15.757C112.32 18.386 113.909 19.475 116.329 19.475ZM126.022 19.495C128.608 19.495 130.886 18.215 131.692 15.635L129.13 15.018C128.679 16.392 127.375 17.103 125.999 17.103C123.958 17.103 122.606 15.776 122.582 13.692H132.001V12.91C132.001 9.21503 129.7 6.46803 125.904 6.46803C122.558 6.46803 119.688 9.09703 119.688 13.005C119.688 16.795 122.226 19.495 126.022 19.495ZM122.606 11.655C122.772 10.163 124.124 8.90703 125.904 8.90703C127.612 8.90703 129.012 9.97303 129.154 11.655H122.606Z" fill="black"/>
<path id="Vector_2" fill-rule="evenodd" clip-rule="evenodd" d="M108.916 19.475H106.116V9.52697H103.934V7.06396H108.916V19.475Z" fill="black"/>
<path id="Vector_3" d="M107.309 5.34089C108.329 5.34089 109.088 4.58289 109.088 3.58789C109.088 2.61789 108.329 1.85889 107.309 1.85889C106.288 1.85889 105.529 2.61689 105.529 3.58889C105.529 4.58289 106.288 5.34089 107.309 5.34089Z" fill="black"/>
<path id="Vector_4" d="M24.443 16.432V21.91H10.752C6.763 21.91 3.28 19.707 1.417 16.432C0.592639 14.9804 0.108159 13.3608 0 11.695L0 10.215C0.0486403 9.4548 0.176329 8.70174 0.381 7.968C1.661 3.368 5.82 0 10.751 0C15.685 0 19.843 3.37 21.122 7.967H15.268C14.308 6.468 12.644 5.477 10.752 5.477C8.86 5.477 7.197 6.468 6.236 7.967C5.93898 8.42856 5.71311 8.93221 5.566 9.461C5.43117 9.94752 5.36322 10.4501 5.364 10.955C5.36179 11.6987 5.51041 12.4351 5.80089 13.1197C6.09136 13.8043 6.51766 14.4228 7.054 14.938C8.04629 15.8967 9.37224 16.4324 10.752 16.432H24.442H24.443Z" fill="#FD366E"/>
<path id="Vector_5" d="M24.443 9.45996V14.938H14.449C14.9855 14.4229 15.412 13.8043 15.7027 13.1197C15.9933 12.4351 16.1421 11.6987 16.14 10.955C16.1405 10.4501 16.0722 9.94743 15.937 9.46096H24.443V9.45996Z" fill="#FD366E"/>
</g>
<defs>
<clipPath id="clip0_4_2">
<rect width="132" height="24" fill="white"/>
</clipPath>
</defs>
</svg>
